<svg width="132" height="55" viewBox="0 0 132 55" fill="none" xmlns="http://www.w3.org/2000/svg">
<g clip-path="url(#clip0_92_184)">
<path d="M32.484 19.7908L28.9404 16.0341L29.5022 15.4984C29.6985 15.3018 29.9178 15.1299 30.1553 14.9864C30.3265 14.8861 30.5191 14.8284 30.717 14.818C30.9193 14.8153 31.1198 14.8561 31.3051 14.9377C31.4963 15.0172 31.6688 15.1362 31.8115 15.2869C31.9349 15.4147 32.0291 15.5681 32.0874 15.7363C32.1457 15.9046 32.1668 16.0836 32.1491 16.2609C32.4008 16.1407 32.6853 16.1088 32.9572 16.1704C33.2832 16.2477 33.5728 16.4356 33.7772 16.7025C33.9815 16.9693 34.0882 17.2988 34.0793 17.6356C34.0757 17.8664 34.0159 18.0929 33.905 18.2951C33.7454 18.5452 33.5537 18.773 33.3349 18.9727L32.484 19.7908ZM31.0256 17.1138L31.2027 16.9454C31.3824 16.8023 31.5004 16.595 31.532 16.3666C31.5327 16.2619 31.5116 16.1583 31.4698 16.0624C31.4281 15.9665 31.3668 15.8805 31.2899 15.8101C31.2255 15.7307 31.1448 15.6663 31.0533 15.6214C30.9618 15.5764 30.8617 15.552 30.7599 15.5499C30.5431 15.5674 30.3409 15.6668 30.194 15.8281L29.9962 16.0174L31.0256 17.1138ZM32.5476 18.7278L32.8963 18.3952C33.1523 18.1518 33.292 17.9236 33.3114 17.7079C33.3245 17.6 33.3131 17.4904 33.2781 17.3876C33.2431 17.2847 33.1854 17.1911 33.1094 17.1138C33.0377 17.0353 32.9497 16.9735 32.8517 16.9329C32.7537 16.8923 32.648 16.8737 32.5421 16.8786C32.3216 16.8786 32.0596 17.0247 31.7562 17.3169L31.4711 17.5952L32.5476 18.7278Z" fill="#222222"/>
<path d="M37.0986 10.1796L35.4216 11.4012L36.1494 12.4086L37.7738 11.2231L38.2027 11.8186L36.5839 13.0027L37.5967 14.4038L39.2682 13.1836L39.6971 13.7749L37.3961 15.4585L34.3687 11.2704L36.6669 9.58545L37.0986 10.1796Z" fill="#222222"/>
<path d="M43.0483 6.66458L42.6747 7.29905C42.5296 7.19673 42.362 7.13133 42.1862 7.10843C42.0136 7.10947 41.8448 7.16056 41.7003 7.25557C41.5558 7.35058 41.4415 7.48548 41.3713 7.64412C41.338 7.72489 41.3235 7.81222 41.3287 7.89949C41.334 7.98675 41.359 8.07167 41.4017 8.1478C41.5235 8.36903 41.7836 8.45807 42.1862 8.41216L42.7397 8.34955C43.1113 8.28726 43.4927 8.32273 43.8466 8.45251C44.1428 8.58291 44.3848 8.81254 44.5315 9.10228C44.6424 9.29112 44.7129 9.50109 44.7387 9.71885C44.7644 9.9366 44.7447 10.1574 44.681 10.3671C44.6175 10.5781 44.5122 10.7741 44.3715 10.9432C44.2307 11.1122 44.0573 11.2509 43.8618 11.3508C43.5127 11.561 43.0962 11.6273 42.6996 11.5358C42.2894 11.4195 41.9326 11.1625 41.6909 10.8095L42.2983 10.2766C42.4136 10.4667 42.5732 10.6257 42.7632 10.7399C42.8771 10.7874 42.9996 10.8105 43.1228 10.8078C43.2461 10.8051 43.3674 10.7767 43.4792 10.7244C43.5909 10.6721 43.6906 10.5969 43.772 10.5038C43.8533 10.4107 43.9146 10.3016 43.9518 10.1834C43.9824 10.0731 43.9906 9.9577 43.9759 9.84414C43.9611 9.73059 43.9237 9.62118 43.866 9.52248C43.8216 9.43992 43.7646 9.36481 43.6972 9.29986C43.6313 9.2397 43.5548 9.19251 43.4716 9.16072C43.377 9.12541 43.2777 9.10432 43.1769 9.09811C43.0517 9.08651 42.9258 9.08651 42.8006 9.09811L42.2651 9.15516C41.5032 9.23308 40.9843 9.0188 40.7085 8.51234C40.617 8.35111 40.5626 8.17133 40.5492 7.98618C40.5358 7.80104 40.5637 7.61522 40.631 7.44237C40.7707 7.06 41.049 6.74489 41.41 6.56023C41.9321 6.28102 42.4782 6.31581 43.0483 6.66458Z" fill="#222222"/>
<path d="M48.3835 6.77879L49.1431 8.73925L48.4181 9.01753L46.5474 4.18943L47.3679 3.86802C47.6697 3.73618 47.9867 3.6427 48.3115 3.58974C48.5404 3.56476 48.7719 3.60074 48.9826 3.6941C49.1697 3.77371 49.3384 3.89147 49.4779 4.03995C49.6175 4.18844 49.7249 4.36441 49.7934 4.55675C49.879 4.75046 49.9204 4.96101 49.9144 5.17291C49.9084 5.38481 49.8552 5.59266 49.7588 5.78117C49.5651 6.15221 49.2183 6.43698 48.7183 6.63548L48.3835 6.77879ZM48.1206 6.10258L48.3973 5.99684C49.0633 5.73618 49.2962 5.34845 49.096 4.83364C48.9023 4.33552 48.4623 4.22097 47.776 4.48997L47.5367 4.58319L48.1206 6.10258Z" fill="#222222"/>
<path d="M53.4476 4.44248C53.3682 4.09967 53.3606 3.74397 53.4254 3.39806C53.4902 3.05215 53.6259 2.72359 53.8239 2.43333C54.0116 2.13275 54.2575 1.87325 54.5471 1.6703C54.8366 1.46735 55.1638 1.3251 55.5092 1.25204C55.8518 1.17041 56.2074 1.16014 56.5541 1.22188C56.9008 1.28362 57.2313 1.41604 57.5252 1.61102C57.8268 1.79474 58.0876 2.03889 58.2913 2.32828C58.4951 2.61767 58.6375 2.94612 58.7096 3.2932C58.7926 3.63767 58.8032 3.99574 58.7407 4.34456C58.6783 4.69338 58.5442 5.02528 58.3471 5.31905C57.9708 5.90112 57.3889 6.31792 56.7188 6.48527C56.0488 6.65262 55.3405 6.55805 54.7371 6.22067C54.4037 6.04006 54.1147 5.78656 53.8916 5.47883C53.6684 5.1711 53.5167 4.81696 53.4476 4.44248ZM54.2141 4.28108C54.2634 4.5393 54.366 4.78422 54.5155 4.99995C54.665 5.21568 54.8579 5.39741 55.0817 5.53333C55.508 5.80176 56.0227 5.88936 56.5131 5.77697C57.0035 5.66457 57.4296 5.36132 57.6981 4.93364C57.8356 4.7165 57.9278 4.47365 57.9694 4.21971C58.0111 3.96577 58.0011 3.70598 57.9403 3.45599C57.8905 3.20497 57.7908 2.96665 57.6472 2.7553C57.5036 2.54395 57.319 2.36393 57.1046 2.22601C56.8944 2.08534 56.6575 1.99018 56.4088 1.94659C56.1601 1.90299 55.9051 1.91191 55.66 1.97278C55.4122 2.02354 55.1774 2.12509 54.9703 2.27112C54.7632 2.41714 54.5882 2.6045 54.4563 2.82152C54.3196 3.03558 54.2276 3.27536 54.186 3.52627C54.1444 3.77719 54.1539 4.034 54.2141 4.28108Z" fill="#222222"/>
<path d="M63.2962 2.25126L65.1697 0.0640037L66.2088 0L64.0268 2.48501L66.5367 5.17038L65.4976 5.23439L63.5093 3.04852L63.3598 3.21827L63.4899 5.35961L62.7137 5.40692L62.394 0.235144L63.1703 0.187837L63.2962 2.25126Z" fill="#222222"/>
<path d="M72.8905 1.02971L70.8317 0.875267L70.739 2.11777L72.7397 2.26665L72.6844 2.99991L70.685 2.84964L70.5577 4.57635L72.6166 4.73079L72.5626 5.46405L69.7275 5.25256L70.1094 0.0849609L72.9459 0.296451L72.8905 1.02971Z" fill="#222222"/>
<path d="M80.5518 6.92647L83.3578 2.00098L83.748 6.38523L86.7671 3.16278L85.9134 8.75336L85.1579 8.49596L85.6851 5.3723L83.1655 8.07019L82.8375 4.40111L81.3155 7.18388L80.5518 6.92647Z" fill="#222222"/>
<path d="M93.6315 7.61361L91.8009 6.65216L91.2281 7.75553L93.006 8.68915L92.6684 9.34031L90.8905 8.40809L90.0935 9.93861L91.9254 10.9001L91.5864 11.5512L89.0654 10.2322L91.4494 5.64062L93.9705 6.95687L93.6315 7.61361Z" fill="#222222"/>
<path d="M97.8932 14.2215L96.1042 12.922L94.9059 13.6037L94.2266 13.1112L99.4996 10.1489L98.2862 16.0609L97.5944 15.56L97.8932 14.2215ZM98.0634 13.4395L98.4702 11.5612L96.7946 12.5226L98.0634 13.4395Z" fill="#222222"/>
<path d="M104.773 14.9642L101.728 18.1866L102.827 19.2371L102.323 19.7686L100.663 18.1811L104.212 14.4243L104.773 14.9642Z" fill="#222222"/>
<path d="M17.0464 40.0039V50.385H14.0024V40.0039H11.8799V37.1502H14.0065V32.2998H17.0506V37.1502H19.1399V40.0039H17.0464Z" fill="#222222"/>
<path d="M8.53988 36.7939L6.02579 38.138C5.63006 37.3226 5.13933 36.9149 4.55359 36.9149C4.28763 36.9096 4.03023 37.0095 3.83686 37.1932C3.73961 37.2837 3.66285 37.3941 3.61176 37.517C3.56067 37.6399 3.53646 37.7725 3.54076 37.9056C3.54076 38.413 4.12604 38.9157 5.2966 39.4139C6.90809 40.1123 7.9938 40.7556 8.55371 41.3437C9.11363 41.9318 9.39266 42.7244 9.39082 43.7216C9.40188 44.3266 9.28201 44.9267 9.03951 45.4805C8.79701 46.0343 8.43768 46.5284 7.98642 46.9287C7.08141 47.7422 5.90275 48.1794 4.68918 48.1517C2.48549 48.1527 0.922432 47.0706 0 44.9056L2.59434 43.6896C2.95409 44.324 3.23082 44.7276 3.42453 44.9001C3.782 45.2393 4.25722 45.4246 4.74868 45.4163C5.77535 45.4163 6.28868 44.9451 6.28868 44.0026C6.28868 43.4581 5.8925 42.9508 5.10013 42.4805C4.79296 42.3274 4.48717 42.1771 4.18138 42.0324C3.8756 41.8877 3.56428 41.7389 3.24881 41.5844C2.36604 41.1484 1.74432 40.7134 1.38365 40.2793C0.922432 39.7227 0.691824 39.0117 0.691824 38.1463C0.691824 36.9961 1.08386 36.0449 1.86792 35.2926C2.65583 34.5463 3.70394 34.1415 4.78604 34.1656C6.46855 34.1693 7.71983 35.0454 8.53988 36.7939Z" fill="#222222"/>
<path d="M31.5251 34.5367H34.5788V47.7715H31.5251V46.3802C30.2724 47.5573 28.9256 48.1463 27.4848 48.1472C25.6658 48.1472 24.1617 47.4858 22.9727 46.1631C21.7929 44.8135 21.2026 43.1285 21.2017 41.1082C21.2017 39.1241 21.792 37.4711 22.9727 36.1493C23.5204 35.5117 24.2011 35.0034 24.9664 34.6604C25.7317 34.3175 26.5627 34.1484 27.4004 34.1652C28.9316 34.1652 30.3051 34.7992 31.5209 36.0672L31.5251 34.5367ZM24.3093 41.1138C24.3093 42.3827 24.6474 43.4156 25.3235 44.2124C25.6425 44.5998 26.0443 44.9097 26.4991 45.1191C26.9538 45.3285 27.4497 45.4318 27.9497 45.4215C29.076 45.4215 29.986 45.0319 30.6796 44.2527C31.3724 43.4457 31.7192 42.4221 31.7202 41.1819C31.7211 39.9418 31.3742 38.9182 30.6796 38.1112C29.9869 37.3218 29.0861 36.9276 27.9774 36.9285C27.4795 36.9203 26.986 37.0235 26.5326 37.2304C26.0792 37.4373 25.6771 37.7429 25.3554 38.1251C24.6589 38.9312 24.3103 39.9274 24.3093 41.1138Z" fill="#222222"/>
<path d="M42.8612 45.3134L36.9434 34.5371H40.4703L44.4967 42.1466L48.2533 34.5371H51.6861L41.1995 54.9738H37.7265L42.8612 45.3134Z" fill="#222222"/>
<path d="M60.4102 28.9979C60.4171 28.539 60.6027 28.1011 60.9271 27.7782C61.2515 27.4554 61.6889 27.2734 62.1453 27.2712C62.3752 27.2674 62.6034 27.311 62.816 27.3993C63.0285 27.4876 63.2207 27.6188 63.3809 27.7846C63.5464 27.943 63.6774 28.1343 63.7655 28.3463C63.8536 28.5582 63.897 28.7863 63.8929 29.016C63.8964 29.2473 63.8527 29.4768 63.7647 29.6905C63.6767 29.9042 63.546 30.0975 63.3809 30.2585C63.2235 30.4252 63.0334 30.557 62.8226 30.6456C62.6117 30.7343 62.3848 30.7778 62.1564 30.7733C61.9259 30.7733 61.6977 30.7275 61.4849 30.6384C61.2722 30.5492 61.0791 30.4187 60.9167 30.2541C60.7544 30.0896 60.6261 29.8944 60.5391 29.6797C60.4522 29.4651 60.4084 29.2353 60.4102 29.0035V28.9979Z" fill="#222222"/>
<path d="M70.5174 34.5371V42.1327C70.5174 44.3255 71.3776 45.4219 73.0979 45.4219C74.8182 45.4219 75.6807 44.3255 75.6853 42.1327V34.5371H78.7293V42.2009C78.7452 43.1304 78.6097 44.0564 78.328 44.9419C78.0529 45.6628 77.6024 46.3029 77.0177 46.8036C75.9902 47.6996 74.6835 48.1481 73.0979 48.149C71.5122 48.15 70.2107 47.7015 69.1933 46.8036C68.6005 46.3044 68.1406 45.6645 67.8553 44.9419C67.6035 44.326 67.4775 43.4109 67.4775 42.1967V34.5371H70.5174Z" fill="#222222"/>
<path d="M82.2964 34.5368H85.3501V35.7584C86.4137 34.7 87.6128 34.1704 88.9476 34.1694C90.4788 34.1694 91.6724 34.6541 92.5284 35.6234C93.2664 36.4471 93.6354 37.7921 93.6354 39.6584V47.7702H90.5803V40.3806C90.5803 39.0755 90.3999 38.1738 90.0393 37.6757C89.6786 37.1776 89.0389 36.9239 88.1202 36.9146C87.1119 36.9146 86.3961 37.25 85.9727 37.9206C85.5493 38.5913 85.3418 39.7461 85.3501 41.3852V47.7716H82.2964V34.5368Z" fill="#222222"/>
<path d="M109.897 47.46C109.897 48.0843 109.878 48.6344 109.838 49.1102C109.804 49.5305 109.748 49.9486 109.668 50.3625C109.474 51.3148 109.036 52.2 108.399 52.931C107.209 54.3112 105.575 55.0009 103.497 54.9999C101.739 54.9999 100.294 54.5246 99.159 53.5738C97.9856 52.5961 97.3099 51.2418 97.1319 49.5109H100.186C100.304 50.1602 100.497 50.663 100.767 51.0192C101.398 51.8429 102.316 52.2552 103.523 52.2561C105.748 52.2561 106.86 50.8838 106.86 48.139V46.2913C105.654 47.5324 104.262 48.1529 102.686 48.1529C100.893 48.1529 99.4242 47.5004 98.2803 46.1953C97.1282 44.8735 96.5517 43.2205 96.5508 41.2364C96.5508 39.3061 97.0867 37.6665 98.1586 36.3178C99.3116 34.8856 100.834 34.17 102.725 34.1709C103.508 34.1556 104.285 34.315 104.999 34.6376C105.714 34.9602 106.349 35.4381 106.858 36.0368V34.5369H109.902L109.897 47.46ZM106.979 41.1849C106.979 39.8983 106.637 38.8701 105.953 38.1002C105.624 37.7171 105.214 37.4123 104.754 37.2078C104.293 37.0032 103.794 36.9041 103.291 36.9175C102.137 36.9175 101.228 37.3479 100.561 38.2087C99.9573 38.9795 99.6557 39.9762 99.6557 41.1988C99.6557 42.4047 99.9573 43.3916 100.561 44.1597C101.219 45.0029 102.129 45.4244 103.291 45.4244C104.452 45.4244 105.371 44.9987 106.047 44.1472C106.669 43.3782 106.98 42.3908 106.979 41.1849Z" fill="#222222"/>
<path d="M116.272 27.3228V47.7761H113.228V27.3228H116.272Z" fill="#222222"/>
<path d="M131.88 41.8806H122.453C122.534 42.9668 122.886 43.8317 123.507 44.4755C124.129 45.1192 124.926 45.4365 125.898 45.4272C126.655 45.4272 127.282 45.2459 127.777 44.8832C128.273 44.5205 128.826 43.8503 129.438 42.8726L132 44.3071C131.644 44.9325 131.223 45.5183 130.744 46.0547C130.328 46.5173 129.851 46.9196 129.325 47.2499C128.819 47.5632 128.267 47.7947 127.69 47.9359C127.066 48.0856 126.426 48.1589 125.785 48.1543C123.821 48.1543 122.244 47.5198 121.055 46.2509C119.866 44.982 119.271 43.2877 119.271 41.1682C119.271 39.0755 119.847 37.3817 121 36.0868C122.162 34.8095 123.703 34.1709 125.621 34.1709C127.559 34.1709 129.09 34.7915 130.215 36.0326C131.341 37.2737 131.899 38.9809 131.891 41.1543L131.88 41.8806ZM128.758 39.3761C128.337 37.7444 127.314 36.9286 125.691 36.9286C125.337 36.9263 124.985 36.9836 124.65 37.0984C124.33 37.2102 124.03 37.3758 123.765 37.5881C123.496 37.8042 123.266 38.0638 123.082 38.3562C122.886 38.6707 122.74 39.0144 122.651 39.3747L128.758 39.3761Z" fill="#222222"/>
<path d="M63.6713 34.5371H60.6273V48.3118C60.5817 50.9429 59.4803 52.2592 57.3066 52.2592H57.2222V55.0058H57.283C59.3622 55.0058 60.9972 54.3175 62.1881 52.941C62.8251 52.2085 63.2615 51.3219 63.4541 50.3683C63.534 49.9544 63.5908 49.5363 63.6243 49.116C63.6409 48.9073 63.6617 48.6833 63.6713 48.4454V34.5371Z" fill="#222222"/>
</g>
<defs>
<clipPath id="clip0_92_184">
<rect width="132" height="55" fill="white"/>
</clipPath>
</defs>
</svg>
